<?xml version="1.0" encoding="utf-8"?>
<!-- Generator: Adobe Illustrator 28.4.1, SVG Export Plug-In . SVG Version: 6.00 Build 0)  -->
<svg version="1.1" id="Capa_1" xmlns="http://www.w3.org/2000/svg" xmlns:xlink="http://www.w3.org/1999/xlink" x="0px" y="0px"
	 viewBox="0 0 164 38" style="enable-background:new 0 0 164 38;" xml:space="preserve">
<style type="text/css">
	.st0{fill:#FFFFFF;}
	.st1{fill:url(#SVGID_1_);}
	.st2{fill:none;stroke:#D0D5DD;stroke-width:0.2;}
	.st3{fill:url(#SVGID_00000029762246991222115570000015902217226215779976_);}
	.st4{fill:#004656;stroke:#FFFFFF;stroke-width:0.1;stroke-miterlimit:10;}
</style>
<g>
	<path class="st0" d="M12,3.1h16c4.4,0,7.9,3.5,7.9,7.9v16c0,4.4-3.5,7.9-7.9,7.9H12c-4.4,0-7.9-3.5-7.9-7.9V11
		C4.1,6.6,7.7,3.1,12,3.1z"/>
	<linearGradient id="SVGID_1_" gradientUnits="userSpaceOnUse" x1="6.4287" y1="5.4139" x2="32.6759" y2="31.6611">
		<stop  offset="0" style="stop-color:#FBFBFB"/>
		<stop  offset="0.4818" style="stop-color:#F9F9F9"/>
		<stop  offset="0.6553" style="stop-color:#F2F3F4"/>
		<stop  offset="0.779" style="stop-color:#E7E7EA"/>
		<stop  offset="0.879" style="stop-color:#D6D7DC"/>
		<stop  offset="0.9637" style="stop-color:#C0C2CA"/>
		<stop  offset="1" style="stop-color:#B4B7C0"/>
	</linearGradient>
	<path class="st1" d="M12,3.1h16c4.4,0,7.9,3.5,7.9,7.9v16c0,4.4-3.5,7.9-7.9,7.9H12c-4.4,0-7.9-3.5-7.9-7.9V11
		C4.1,6.6,7.7,3.1,12,3.1z"/>
	<path class="st2" d="M12,3.1h16c4.4,0,7.9,3.5,7.9,7.9v16c0,4.4-3.5,7.9-7.9,7.9H12c-4.4,0-7.9-3.5-7.9-7.9V11
		C4.1,6.6,7.7,3.1,12,3.1z"/>
	
		<linearGradient id="SVGID_00000155119082089421231410000015934054459786424489_" gradientUnits="userSpaceOnUse" x1="8.0797" y1="19.3482" x2="31.9499" y2="19.3482">
		<stop  offset="0" style="stop-color:#CC71A5"/>
		<stop  offset="0.669" style="stop-color:#8A9BCA"/>
		<stop  offset="1" style="stop-color:#6EADDA"/>
	</linearGradient>
	<path style="fill:url(#SVGID_00000155119082089421231410000015934054459786424489_);" d="M14,8.6c3.3,0,6,2.3,6,5.8
		c0-3.5,2.7-5.8,6-5.8s6,2.9,6,6.4c0,3.3-4.9,8.6-8.5,12.7c-2.8,3.2-4.1,3.2-6.8,0C13,23.5,8.1,18.3,8.1,15
		C8.1,11.4,10.8,8.6,14,8.6z"/>
	<path class="st4" d="M21.8,17.5c0.1,0.1,0.1,0.1,0.1,0.2 M9.5,19l3.2,0l2-4.3c0.1-0.1,0.2-0.2,0.4-0.2c0.1,0,0.1,0.1,0.2,0.1l3,6.7
		c0,0.1,0.2,0.1,0.2,0l2.6-3.8c0.1-0.1,0.3-0.2,0.4-0.1c0,0,0.1,0.1,0.1,0.1l1.6,2.2l2.3-2.1c0.1-0.1,0.3-0.1,0.4,0c0,0,0,0,0.1,0.1
		h0L27,19h3.5l-0.4,0.6h-3.3v0c-0.1,0-0.2-0.1-0.3-0.1l-0.8-1.2l-2.3,2.1h0c0,0,0,0-0.1,0c-0.1,0.1-0.3,0-0.4-0.1l-1.4-1.9
		c-0.1-0.1-0.2-0.1-0.2,0l-2.6,4c0,0.1-0.2,0.1-0.2,0.2c-0.2,0.1-0.3,0-0.4-0.2l-3-6.5c0-0.1-0.2-0.1-0.3,0l-1.7,3.6
		c-0.1,0.1-0.1,0.2-0.4,0.2c0,0,0,0,0,0l-2.9,0C9.8,19.4,9.6,19.1,9.5,19z"/>
</g>
<g>
	<g>
		<path class="st0" d="M46.2,9.8H50l3.4,9.3c0.4,1.2,0.8,2.5,1.2,3.7h0.1c0.4-1.2,0.8-2.5,1.2-3.7l3.3-9.3h3.8v19h-3.1v-8.7
			c0-1.8,0.3-4.3,0.4-6h-0.1l-1.5,4.4L55.5,27h-2l-3.1-8.5l-1.5-4.4h-0.1c0.2,1.8,0.4,4.3,0.4,6v8.7h-3V9.8z"/>
		<path class="st0" d="M66.5,21.7c0-4.6,3.2-7.5,6.6-7.5c3.9,0,5.9,2.8,5.9,6.8c0,0.6-0.1,1.3-0.1,1.6h-9c0.3,2.5,1.9,4,4.2,4
			c1.2,0,2.3-0.4,3.3-1l1.1,2.1c-1.4,0.9-3.1,1.5-4.9,1.5C69.6,29.1,66.5,26.4,66.5,21.7z M76.1,20.3c0-2.2-1-3.5-2.9-3.5
			c-1.7,0-3.1,1.2-3.4,3.5H76.1z"/>
		<path class="st0" d="M81.3,21.7c0-4.6,2.9-7.5,6-7.5c1.6,0,2.6,0.6,3.7,1.6L91,13.4V8.3h3.3v20.5h-2.7l-0.3-1.5h-0.1
			c-1.1,1.1-2.5,1.9-4,1.9C83.6,29.1,81.3,26.4,81.3,21.7z M91,24.8v-6.6c-1-0.9-1.9-1.2-2.9-1.2c-1.8,0-3.3,1.7-3.3,4.7
			c0,3.1,1.2,4.7,3.2,4.7C89.1,26.4,90,25.9,91,24.8z"/>
		<path class="st0" d="M98.2,10.1c0-1.1,0.9-1.9,2.1-1.9s2.1,0.8,2.1,1.9c0,1.1-0.9,1.9-2.1,1.9S98.2,11.2,98.2,10.1z M98.5,14.5
			h3.3v14.2h-3.3V14.5z"/>
		<path class="st0" d="M106.4,9.8h6c4.2,0,7.3,1.5,7.3,5.8c0,4.2-3.1,6.1-7.2,6.1h-2.7v7h-3.4V9.8z M112.2,19.1
			c2.8,0,4.2-1.1,4.2-3.5c0-2.4-1.5-3.2-4.3-3.2h-2.3v6.6H112.2z"/>
		<path class="st0" d="M123,25.1V8.3h3.3v17c0,0.8,0.4,1.1,0.7,1.1c0.2,0,0.3,0,0.5-0.1l0.4,2.5c-0.4,0.2-1,0.3-1.8,0.3
			C123.9,29.1,123,27.6,123,25.1z"/>
		<path class="st0" d="M130.1,24.9c0-3.1,2.5-4.6,8.4-5.3c0-1.5-0.7-2.8-2.6-2.8c-1.4,0-2.8,0.6-4,1.4l-1.2-2.2
			c1.6-1,3.6-1.9,5.8-1.9c3.6,0,5.3,2.2,5.3,6.2v8.4h-2.7l-0.3-1.6h-0.1c-1.3,1.1-2.7,1.9-4.4,1.9C131.8,29.1,130.1,27.4,130.1,24.9
			z M138.5,25v-3.2c-3.9,0.5-5.2,1.5-5.2,2.9c0,1.3,0.9,1.8,2.1,1.8C136.5,26.5,137.4,25.9,138.5,25z"/>
		<path class="st0" d="M145.8,14.5h2.7l0.3,1.9h0.1c1.3-1.2,2.7-2.3,4.7-2.3c3.1,0,4.4,2.1,4.4,5.7v8.9h-3.3v-8.5
			c0-2.3-0.7-3.2-2.2-3.2c-1.3,0-2.1,0.6-3.2,1.8v10h-3.3V14.5z"/>
	</g>
</g>
</svg>
